<svg xmlns="http://www.w3.org/2000/svg" xmlns:xlink="http://www.w3.org/1999/xlink" viewBox="0 0 214.74 195.8"><defs><style>.cls-1{fill:#fff}</style><linearGradient id="linear-gradient" x1="106.78" y1="79.07" x2="106.78" y2="198.34" gradientUnits="userSpaceOnUse"><stop offset="0" stop-color="#d5d7d8"/><stop offset=".03" stop-color="#d5d7d8" stop-opacity=".94"/><stop offset=".17" stop-color="#d5d7d8" stop-opacity=".69"/><stop offset=".31" stop-color="#d5d7d8" stop-opacity=".48"/><stop offset=".45" stop-color="#d5d7d8" stop-opacity=".31"/><stop offset=".59" stop-color="#d5d7d8" stop-opacity=".17"/><stop offset=".73" stop-color="#d5d7d8" stop-opacity=".08"/><stop offset=".87" stop-color="#d5d7d8" stop-opacity=".02"/><stop offset="1" stop-color="#d5d7d8" stop-opacity="0"/></linearGradient><linearGradient id="linear-gradient-2" x1="160.21" y1="79.07" x2="160.21" y2="198.34" xlink:href="#linear-gradient"/><linearGradient id="linear-gradient-3" x1="54.53" y1="79.07" x2="54.53" y2="198.34" xlink:href="#linear-gradient"/></defs><g id="Слой_2" data-name="Слой 2"><g id="Layer_1" data-name="Layer 1"><path class="cls-1" d="M13.74 133.6h-8.3v2.72h7.15v4.19H5.44v6.39H0v-17.76h13.74zm17.38 13.3h-5.51l-.87-2.52H19l-.88 2.52h-5.48l6.56-17.76h5.39zm-8.53-9.38a24.56 24.56 0 0 1-.67-2.69c-.3 1.22-.4 1.62-.75 2.72 0 0-.37 1.22-1 3h3.34zm18.21 9.8c-5.44 0-8.91-4.09-8.91-9.35s3.62-9.28 9-9.28c4.33 0 7.8 3 8.05 7h-5.28a2.75 2.75 0 0 0-2.86-2.49c-2.57 0-3.42 2.56-3.42 4.76 0 2.94 1.3 4.76 3.42 4.76 1.59 0 2.59-1 2.86-2.84H49c-.3 4.92-3.89 7.44-8.2 7.44zm25.03-13.62h-5v13.2h-5.42v-13.2h-5v-4.56h15.42zm19.58 4.3c0 5.56-3.6 9.3-8.93 9.3s-9.08-3.69-9.08-9.3 3.62-9.32 9.13-9.32c5.31-.01 8.88 3.75 8.88 9.32zm-12.47-.1c0 3.17 1.29 5 3.54 5s3.41-1.77 3.41-5.14c0-3-1.27-4.74-3.44-4.74s-3.51 1.86-3.51 4.9zm24.36-8.76c2.77 0 6.33 1.12 6.33 5.24a4.69 4.69 0 0 1-2.62 4.34c1.8.45 2.45 2.82 2.6 4.39l.17 1.87a4.2 4.2 0 0 0 .45 1.92h-5.39a5.56 5.56 0 0 1-.32-1.67l-.07-1c-.15-2-.48-3.59-3-3.59h-2.3v6.26h-5.4v-17.76zm-4.17 7.76h3c1.24 0 2.22-.45 2.22-1.85 0-1.2-.85-1.79-2.52-1.79h-2.7zm21.72 3.59v6.41h-5.36v-6.54l-6.33-11.22h6l1.32 2.82a37 37 0 0 1 1.67 3.91c.58-1.47 1.23-2.86 1.9-4.29l1.17-2.44h6zm30-6.79h-5v13.2h-5.43v-13.2h-5v-4.56h15.39zm16.83-.25h-9.35v2.22h8.48v4.12h-8.48v2.59h9.6v4.52H147v-17.76h14.71zm18.85 13.45h-5.21l-4.41-7.56c-.5-.87-.93-1.75-1.35-2.67a37.14 37.14 0 0 1 .17 4.07v6.16h-5.23v-17.76h5.38l3.85 6.66a33 33 0 0 1 1.74 3.34c-.1-1.35-.15-2.72-.15-4.09v-5.91h5.23zM198 133.7h-5v13.2h-5.44v-13.2h-5v-4.56H198zm10.91.83c0-1.08-.87-1.7-2.27-1.7-1.15 0-1.8.4-1.8 1.1 0 1.1 3 1.52 3.79 1.72 3 .77 6.11 1.92 6.11 5.61s-3 6-7.75 6c-5 0-8-2.42-8.06-6.39h5.46c.1 1.72 1.18 2.3 2.77 2.3 1.37 0 2.22-.58 2.22-1.48a.91.91 0 0 0-.38-.69c-.72-.6-3.79-1.34-5-1.77-2.54-.87-4.39-1.87-4.39-4.91 0-3.34 2.89-5.56 7.18-5.56 4.54 0 7.16 2.09 7.21 5.76z"/><path d="M56 166.67V168h-1v-1.3c-2.44 0-4.69-1.36-4.69-4.17s2.2-4.11 4.69-4.11v-1.18h1v1.18c2.49 0 4.7 1.41 4.7 4.11s-2.28 4.14-4.7 4.14zm-1-7.4c-2.1.1-3.68 1-3.68 3.23s1.63 3.16 3.68 3.31zm1 0v6.54c2.05-.15 3.69-1.09 3.69-3.31s-1.62-3.13-3.69-3.23zm12.83 8.65a2.16 2.16 0 0 1-.76.12c-.92 0-1-.71-1-1.42a3.25 3.25 0 0 1-2.93 1.56c-1.58 0-2.53-.82-2.53-2.18s1-2.2 2.88-2.4a5.82 5.82 0 0 0 2.27-.41c.19-.13.27-.34.27-.74 0-1.28-.79-1.67-2-1.67a1.83 1.83 0 0 0-2.11 1.83H62c.08-1.67 1.21-2.62 3.13-2.62 1.75 0 2.85.77 2.85 2.24v4.23c0 .46 0 .78.52.78a1.27 1.27 0 0 0 .36 0zm-3.93-3.64c-1 .14-2.31.36-2.31 1.63 0 .91.7 1.48 1.78 1.48A2.45 2.45 0 0 0 67 165v-1.27c-.28.34-1 .42-2.1.55zm8.3 3.91c-2.85 0-3.6-2.29-3.6-4.69a8.92 8.92 0 0 1 1-4.5 3.55 3.55 0 0 1 3.13-1.59h.72c.8-.05 1-.16 1.12-.41h1.06c-.17.92-.76 1.16-2.1 1.25l-1.15.08c-1.75.12-2.64 1.24-3 3.62a3.2 3.2 0 0 1 2.89-1.75c2.08 0 3.51 1.52 3.51 4s-1.42 3.99-3.58 3.99zm0-7.23c-1.6 0-2.7 1.24-2.7 3.19s1.11 3.24 2.65 3.24 2.66-1.33 2.66-3.24-1.07-3.15-2.56-3.15zm5.95.74a2.86 2.86 0 0 1 2.78-1.7c2.11 0 3.5 1.64 3.5 4.14S84 168.21 82 168.21a2.84 2.84 0 0 1-2.75-1.68v4.34h-.92v-10.66h.86zm0 2.4c0 2 1 3.31 2.66 3.31s2.62-1.3 2.62-3.29-1-3.36-2.65-3.36-2.6 1.24-2.6 3.34zm13.12 3.9v-6.65l-4.2 6.65h-1.18v-7.76h1v6.64l4.2-6.64h1.18V168zm9.47 0h-1.19l-3-4.1-1.55 1.44V168h-1v-7.76h1v4l4.32-4h1.27l-3.31 3zm7.63-.08a2.2 2.2 0 0 1-.76.12c-.92 0-1-.71-1-1.42a3.26 3.26 0 0 1-2.93 1.56c-1.59 0-2.54-.82-2.54-2.18s1-2.2 2.89-2.4a5.76 5.76 0 0 0 2.26-.41c.2-.13.27-.34.27-.74 0-1.28-.78-1.67-2-1.67a1.83 1.83 0 0 0-2.11 1.83h-.91c.08-1.67 1.21-2.62 3.13-2.62 1.75 0 2.85.77 2.85 2.24v4.23c0 .46 0 .78.51.78a1.33 1.33 0 0 0 .37 0zm-3.93-3.64c-1 .14-2.31.36-2.31 1.63 0 .91.69 1.48 1.78 1.48a2.44 2.44 0 0 0 2.64-2.38v-1.27c-.3.33-1.07.41-2.11.54zm9.13-4.07h1v7h3.64v-7h1v7h3.64v-7h1V168h-10.28zm18.73 7.71a2.11 2.11 0 0 1-.75.12c-.92 0-1-.71-1-1.42a3.27 3.27 0 0 1-2.93 1.56c-1.59 0-2.54-.82-2.54-2.18s1-2.2 2.88-2.4a5.78 5.78 0 0 0 2.27-.41c.2-.13.27-.34.27-.74 0-1.28-.78-1.67-2-1.67a1.83 1.83 0 0 0-2.12 1.83h-.9c.07-1.67 1.2-2.62 3.12-2.62 1.75 0 2.86.77 2.86 2.24v4.23c0 .46 0 .78.51.78a1.23 1.23 0 0 0 .36 0zm-3.92-3.64c-1 .14-2.31.36-2.31 1.63 0 .91.69 1.48 1.78 1.48a2.44 2.44 0 0 0 2.64-2.38v-1.27c-.3.33-1.07.41-2.11.54zm7.87-3.28v7h-.95v-7h-2.88v-.8h6.72v.8zm4.68.7a2.86 2.86 0 0 1 2.78-1.72c2.11 0 3.5 1.64 3.5 4.14s-1.39 4.09-3.47 4.09a2.85 2.85 0 0 1-2.75-1.68v4.34h-.92v-10.66h.86zm0 2.4c0 2 1 3.31 2.66 3.31s2.63-1.3 2.63-3.29-1-3.36-2.66-3.36S142 162 142 164.1zm14.72.02c0 2.5-1.41 4.07-3.66 4.07s-3.69-1.6-3.69-4.1 1.45-4.09 3.7-4.09 3.65 1.58 3.65 4.12zm-6.39 0c0 2 1 3.32 2.75 3.32s2.69-1.29 2.69-3.31-1.06-3.32-2.72-3.32-2.72 1.27-2.72 3.28zM161.7 168h-3.64v-7.76h3.64c1.59 0 2.5.64 2.5 1.84a1.73 1.73 0 0 1-1.35 1.78 1.8 1.8 0 0 1 1.65 1.93c0 1.41-1 2.21-2.8 2.21zm-.1-7H159v2.53h2.58c1.07 0 1.64-.47 1.64-1.25s-.52-1.28-1.62-1.28zm0 3.27H159v2.89h2.58c1.33 0 2-.5 2-1.48s-.68-1.4-1.98-1.4z" fill="#d5d7d8"/><path class="cls-1" d="M92.57 97.9H121C108.15 71.68 107.59-9.38 107.59 4.52c0 67.16-15.02 93.38-15.02 93.38zm76.43 0h40.19C197.34 96 133.86 82.07 111.28 0c0 0 9.77 80.94 57.72 97.9zm-123.2 0C93.7 80.94 103.46 0 103.46 0 80.88 82.07 17.4 96 5.6 97.9z"/><g opacity=".15"><path d="M92.57 97.9H121c-12.83 26.21-13.39 107.28-13.39 93.37-.02-67.16-15.04-93.37-15.04-93.37z" fill="url(#linear-gradient)"/><path d="M169 97.9h40.19c-11.8 1.9-75.28 15.83-97.86 97.9-.05 0 9.72-80.94 57.67-97.9z" fill="url(#linear-gradient-2)"/><path d="M45.8 97.9c47.9 17 57.66 97.9 57.66 97.9-22.58-82.07-86.06-96-97.86-97.9z" fill="url(#linear-gradient-3)"/></g></g></g></svg>